<svg width="190" height="219" viewBox="0 0 190 219" fill="none" xmlns="http://www.w3.org/2000/svg">
<g clip-path="url(#clip0_24_783)">
<path d="M163.136 191.109H26.8638C28.1384 154.628 58.2126 125.342 95.0001 125.342C131.788 125.342 161.862 154.628 163.136 191.109ZM95.0001 41.5741C76.6697 41.5741 61.7561 56.4878 61.7561 74.8181C61.7561 93.1496 76.6697 108.062 95.0001 108.062C113.332 108.062 128.244 93.1496 128.244 74.8181C128.244 56.4878 113.332 41.5741 95.0001 41.5741ZM190.108 19.2302V172.77C190.108 182.898 181.898 191.109 171.77 191.109H168.993C168.703 181.967 166.761 173.096 163.212 164.704C159.484 155.888 154.146 147.971 147.348 141.173C140.55 134.375 132.633 129.038 123.817 125.308C114.689 121.448 104.993 119.49 95.0001 119.49C85.0075 119.49 75.3116 121.448 66.1833 125.308C57.3668 129.038 49.4502 134.375 42.6524 141.173C35.8546 147.971 30.5166 155.888 26.788 164.704C23.2391 173.096 21.2973 181.967 21.0071 191.109H18.2303C8.10235 191.109 -0.107666 182.898 -0.107666 172.77V19.2302C-0.107666 9.10229 8.10235 0.892273 18.2303 0.892273H171.77C181.898 0.892273 190.108 9.10229 190.108 19.2302ZM134.096 74.8181C134.096 69.5419 133.062 64.4216 131.023 59.5991C129.053 54.9434 126.235 50.7621 122.645 47.1731C119.056 43.5831 114.875 40.7652 110.219 38.7952C105.397 36.756 100.276 35.7218 95.0001 35.7218C89.7238 35.7218 84.6035 36.756 79.7811 38.7952C75.1254 40.7652 70.944 43.5831 67.355 47.1731C63.765 50.7621 60.9471 54.9434 58.9772 59.5991C56.9379 64.4216 55.9037 69.5419 55.9037 74.8181C55.9037 80.0955 56.9379 85.2158 58.9772 90.0371C60.9471 94.6928 63.765 98.8742 67.355 102.463C70.944 106.053 75.1254 108.871 79.7811 110.841C84.6035 112.88 89.7238 113.915 95.0001 113.915C100.276 113.915 105.397 112.88 110.219 110.841C114.875 108.871 119.056 106.053 122.645 102.463C126.235 98.8742 129.053 94.6928 131.023 90.0371C133.062 85.2158 134.096 80.0955 134.096 74.8181Z" fill="#286EFA"/>
</g>
<rect x="1" y="167" width="189" height="33" fill="white"/>
<path d="M58.2432 198.598H49.2222L47.6722 203H43.9832L51.7022 181.424H55.7942L63.5132 203H59.7932L58.2432 198.598ZM57.2512 195.715L53.7482 185.702L50.2142 195.715H57.2512ZM65.6914 194.382C65.6914 192.667 66.0428 191.148 66.7454 189.825C67.4688 188.502 68.4401 187.479 69.6594 186.756C70.8994 186.012 72.2738 185.64 73.7824 185.64C74.8984 185.64 75.9938 185.888 77.0684 186.384C78.1638 186.859 79.0318 187.5 79.6724 188.306V180.06H83.2374V203H79.6724V200.427C79.0938 201.254 78.2878 201.936 77.2544 202.473C76.2418 203.01 75.0741 203.279 73.7514 203.279C72.2634 203.279 70.8994 202.907 69.6594 202.163C68.4401 201.398 67.4688 200.344 66.7454 199.001C66.0428 197.637 65.6914 196.097 65.6914 194.382ZM79.6724 194.444C79.6724 193.266 79.4244 192.243 78.9284 191.375C78.4531 190.507 77.8228 189.846 77.0374 189.391C76.2521 188.936 75.4048 188.709 74.4954 188.709C73.5861 188.709 72.7388 188.936 71.9534 189.391C71.1681 189.825 70.5274 190.476 70.0314 191.344C69.5561 192.191 69.3184 193.204 69.3184 194.382C69.3184 195.56 69.5561 196.593 70.0314 197.482C70.5274 198.371 71.1681 199.053 71.9534 199.528C72.7594 199.983 73.6068 200.21 74.4954 200.21C75.4048 200.21 76.2521 199.983 77.0374 199.528C77.8228 199.073 78.4531 198.412 78.9284 197.544C79.4244 196.655 79.6724 195.622 79.6724 194.444ZM108.556 185.64C109.9 185.64 111.098 185.919 112.152 186.477C113.227 187.035 114.064 187.862 114.663 188.957C115.283 190.052 115.593 191.375 115.593 192.925V203H112.09V193.452C112.09 191.923 111.708 190.755 110.943 189.949C110.179 189.122 109.135 188.709 107.812 188.709C106.49 188.709 105.436 189.122 104.65 189.949C103.886 190.755 103.503 191.923 103.503 193.452V203H100V193.452C100 191.923 99.6179 190.755 98.8532 189.949C98.0885 189.122 97.0449 188.709 95.7222 188.709C94.3995 188.709 93.3455 189.122 92.5602 189.949C91.7955 190.755 91.4132 191.923 91.4132 193.452V203H87.8792V185.919H91.4132V187.872C91.9919 187.169 92.7255 186.622 93.6142 186.229C94.5029 185.836 95.4535 185.64 96.4662 185.64C97.8302 185.64 99.0495 185.929 100.124 186.508C101.199 187.087 102.026 187.924 102.604 189.019C103.121 187.986 103.927 187.169 105.022 186.57C106.118 185.95 107.296 185.64 108.556 185.64ZM121.888 183.656C121.247 183.656 120.71 183.439 120.276 183.005C119.842 182.571 119.625 182.034 119.625 181.393C119.625 180.752 119.842 180.215 120.276 179.781C120.71 179.347 121.247 179.13 121.888 179.13C122.508 179.13 123.035 179.347 123.469 179.781C123.903 180.215 124.12 180.752 124.12 181.393C124.12 182.034 123.903 182.571 123.469 183.005C123.035 183.439 122.508 183.656 121.888 183.656ZM123.624 185.919V203H120.09V185.919H123.624ZM136.882 185.64C138.225 185.64 139.424 185.919 140.478 186.477C141.553 187.035 142.39 187.862 142.989 188.957C143.588 190.052 143.888 191.375 143.888 192.925V203H140.385V193.452C140.385 191.923 140.003 190.755 139.238 189.949C138.473 189.122 137.43 188.709 136.107 188.709C134.784 188.709 133.73 189.122 132.945 189.949C132.18 190.755 131.798 191.923 131.798 193.452V203H128.264V185.919H131.798V187.872C132.377 187.169 133.11 186.622 133.999 186.229C134.908 185.836 135.869 185.64 136.882 185.64Z" fill="#286EFA"/>
<rect x="1" y="1" width="188" height="217" rx="19" stroke="#286EFA" stroke-width="2"/>
<defs>
<clipPath id="clip0_24_783">
<rect width="190" height="190" fill="white" transform="translate(0 1)"/>
</clipPath>
</defs>
</svg>
