<svg width="190" height="219" viewBox="0 0 190 219" fill="none" xmlns="http://www.w3.org/2000/svg">
<g clip-path="url(#clip0_24_784)">
<path d="M163.136 191.109H26.8638C28.1384 154.628 58.2126 125.342 95.0001 125.342C131.788 125.342 161.862 154.628 163.136 191.109ZM95.0001 41.5741C76.6697 41.5741 61.7561 56.4878 61.7561 74.8181C61.7561 93.1496 76.6697 108.062 95.0001 108.062C113.332 108.062 128.244 93.1496 128.244 74.8181C128.244 56.4878 113.332 41.5741 95.0001 41.5741ZM190.108 19.2302V172.77C190.108 182.898 181.898 191.109 171.77 191.109H168.993C168.703 181.967 166.761 173.096 163.212 164.704C159.484 155.888 154.146 147.971 147.348 141.173C140.55 134.375 132.633 129.038 123.817 125.308C114.689 121.448 104.993 119.49 95.0001 119.49C85.0075 119.49 75.3116 121.448 66.1833 125.308C57.3668 129.038 49.4502 134.375 42.6524 141.173C35.8546 147.971 30.5166 155.888 26.788 164.704C23.2391 173.096 21.2973 181.967 21.0071 191.109H18.2303C8.10235 191.109 -0.107666 182.898 -0.107666 172.77V19.2302C-0.107666 9.10229 8.10235 0.892273 18.2303 0.892273H171.77C181.898 0.892273 190.108 9.10229 190.108 19.2302ZM134.096 74.8181C134.096 69.5419 133.062 64.4216 131.023 59.5991C129.053 54.9434 126.235 50.7621 122.645 47.1731C119.056 43.5831 114.875 40.7652 110.219 38.7952C105.397 36.756 100.276 35.7218 95.0001 35.7218C89.7238 35.7218 84.6035 36.756 79.7811 38.7952C75.1254 40.7652 70.944 43.5831 67.355 47.1731C63.765 50.7621 60.9471 54.9434 58.9772 59.5991C56.9379 64.4216 55.9037 69.5419 55.9037 74.8181C55.9037 80.0955 56.9379 85.2158 58.9772 90.0371C60.9471 94.6928 63.765 98.8742 67.355 102.463C70.944 106.053 75.1254 108.871 79.7811 110.841C84.6035 112.88 89.7238 113.915 95.0001 113.915C100.276 113.915 105.397 112.88 110.219 110.841C114.875 108.871 119.056 106.053 122.645 102.463C126.235 98.8742 129.053 94.6928 131.023 90.0371C133.062 85.2158 134.096 80.0955 134.096 74.8181Z" fill="#286EFA"/>
</g>
<rect x="1" y="167" width="189" height="29" fill="white"/>
<path d="M42.8322 203.217C41.3855 203.217 40.0835 202.969 38.9262 202.473C37.7689 201.956 36.8595 201.233 36.1982 200.303C35.5369 199.373 35.2062 198.288 35.2062 197.048H38.9882C39.0709 197.978 39.4325 198.743 40.0732 199.342C40.7345 199.941 41.6542 200.241 42.8322 200.241C44.0515 200.241 45.0022 199.952 45.6842 199.373C46.3662 198.774 46.7072 198.009 46.7072 197.079C46.7072 196.356 46.4902 195.767 46.0562 195.312C45.6429 194.857 45.1159 194.506 44.4752 194.258C43.8552 194.01 42.9872 193.741 41.8712 193.452C40.4659 193.08 39.3189 192.708 38.4302 192.336C37.5622 191.943 36.8182 191.344 36.1982 190.538C35.5782 189.732 35.2682 188.657 35.2682 187.314C35.2682 186.074 35.5782 184.989 36.1982 184.059C36.8182 183.129 37.6862 182.416 38.8022 181.92C39.9182 181.424 41.2099 181.176 42.6772 181.176C44.7645 181.176 46.4695 181.703 47.7922 182.757C49.1355 183.79 49.8795 185.216 50.0242 187.035H46.1182C46.0562 186.25 45.6842 185.578 45.0022 185.02C44.3202 184.462 43.4212 184.183 42.3052 184.183C41.2925 184.183 40.4659 184.441 39.8252 184.958C39.1845 185.475 38.8642 186.219 38.8642 187.19C38.8642 187.851 39.0605 188.399 39.4532 188.833C39.8665 189.246 40.3832 189.577 41.0032 189.825C41.6232 190.073 42.4705 190.342 43.5452 190.631C44.9712 191.024 46.1285 191.416 47.0172 191.809C47.9265 192.202 48.6912 192.811 49.3112 193.638C49.9519 194.444 50.2722 195.529 50.2722 196.893C50.2722 197.988 49.9725 199.022 49.3732 199.993C48.7945 200.964 47.9369 201.75 46.8002 202.349C45.6842 202.928 44.3615 203.217 42.8322 203.217ZM58.5652 188.802V198.257C58.5652 198.898 58.7099 199.363 58.9992 199.652C59.3092 199.921 59.8259 200.055 60.5492 200.055H62.7192V203H59.9292C58.3379 203 57.1185 202.628 56.2712 201.884C55.4239 201.14 55.0002 199.931 55.0002 198.257V188.802H52.9852V185.919H55.0002V181.672H58.5652V185.919H62.7192V188.802H58.5652ZM81.4454 185.919V203H77.9114V200.985C77.3534 201.688 76.6197 202.246 75.7104 202.659C74.8217 203.052 73.871 203.248 72.8584 203.248C71.515 203.248 70.306 202.969 69.2314 202.411C68.1774 201.853 67.3404 201.026 66.7204 199.931C66.121 198.836 65.8214 197.513 65.8214 195.963V185.919H69.3244V195.436C69.3244 196.965 69.7067 198.143 70.4714 198.97C71.236 199.776 72.2797 200.179 73.6024 200.179C74.925 200.179 75.9687 199.776 76.7334 198.97C77.5187 198.143 77.9114 196.965 77.9114 195.436V185.919H81.4454ZM84.9302 194.382C84.9302 192.667 85.2815 191.148 85.9842 189.825C86.7075 188.502 87.6789 187.479 88.8982 186.756C90.1382 186.012 91.5125 185.64 93.0212 185.64C94.1372 185.64 95.2325 185.888 96.3072 186.384C97.4025 186.859 98.2705 187.5 98.9112 188.306V180.06H102.476V203H98.9112V200.427C98.3325 201.254 97.5265 201.936 96.4932 202.473C95.4805 203.01 94.3129 203.279 92.9902 203.279C91.5022 203.279 90.1382 202.907 88.8982 202.163C87.6789 201.398 86.7075 200.344 85.9842 199.001C85.2815 197.637 84.9302 196.097 84.9302 194.382ZM98.9112 194.444C98.9112 193.266 98.6632 192.243 98.1672 191.375C97.6919 190.507 97.0615 189.846 96.2762 189.391C95.4909 188.936 94.6435 188.709 93.7342 188.709C92.8249 188.709 91.9775 188.936 91.1922 189.391C90.4069 189.825 89.7662 190.476 89.2702 191.344C88.7949 192.191 88.5572 193.204 88.5572 194.382C88.5572 195.56 88.7949 196.593 89.2702 197.482C89.7662 198.371 90.4069 199.053 91.1922 199.528C91.9982 199.983 92.8455 200.21 93.7342 200.21C94.6435 200.21 95.4909 199.983 96.2762 199.528C97.0615 199.073 97.6919 198.412 98.1672 197.544C98.6632 196.655 98.9112 195.622 98.9112 194.444ZM122.773 194.041C122.773 194.682 122.732 195.26 122.649 195.777H109.598C109.701 197.141 110.208 198.236 111.117 199.063C112.026 199.89 113.142 200.303 114.465 200.303C116.366 200.303 117.71 199.507 118.495 197.916H122.308C121.791 199.487 120.851 200.778 119.487 201.791C118.144 202.783 116.47 203.279 114.465 203.279C112.832 203.279 111.365 202.917 110.063 202.194C108.782 201.45 107.769 200.417 107.025 199.094C106.302 197.751 105.94 196.201 105.94 194.444C105.94 192.687 106.291 191.148 106.994 189.825C107.717 188.482 108.72 187.448 110.001 186.725C111.303 186.002 112.791 185.64 114.465 185.64C116.077 185.64 117.513 185.991 118.774 186.694C120.035 187.397 121.016 188.389 121.719 189.67C122.422 190.931 122.773 192.388 122.773 194.041ZM119.084 192.925C119.063 191.623 118.598 190.579 117.689 189.794C116.78 189.009 115.653 188.616 114.31 188.616C113.091 188.616 112.047 189.009 111.179 189.794C110.311 190.559 109.794 191.602 109.629 192.925H119.084ZM134.869 185.64C136.212 185.64 137.411 185.919 138.465 186.477C139.539 187.035 140.376 187.862 140.976 188.957C141.575 190.052 141.875 191.375 141.875 192.925V203H138.372V193.452C138.372 191.923 137.989 190.755 137.225 189.949C136.46 189.122 135.416 188.709 134.094 188.709C132.771 188.709 131.717 189.122 130.932 189.949C130.167 190.755 129.785 191.923 129.785 193.452V203H126.251V185.919H129.785V187.872C130.363 187.169 131.097 186.622 131.986 186.229C132.895 185.836 133.856 185.64 134.869 185.64ZM150.506 188.802V198.257C150.506 198.898 150.65 199.363 150.94 199.652C151.25 199.921 151.766 200.055 152.49 200.055H154.66V203H151.87C150.278 203 149.059 202.628 148.212 201.884C147.364 201.14 146.941 199.931 146.941 198.257V188.802H144.926V185.919H146.941V181.672H150.506V185.919H154.66V188.802H150.506Z" fill="#286EFA"/>
<rect x="1" y="1" width="188" height="217" rx="19" stroke="#286EFA" stroke-width="2"/>
<defs>
<clipPath id="clip0_24_784">
<rect width="190" height="190" fill="white" transform="translate(0 1)"/>
</clipPath>
</defs>
</svg>
